<?xml version="1.0" standalone="no"?>
<!DOCTYPE svg PUBLIC "-//W3C//DTD SVG 20010904//EN"
 "http://www.w3.org/TR/2001/REC-SVG-20010904/DTD/svg10.dtd">
<svg version="1.0" xmlns="http://www.w3.org/2000/svg"
 width="768.000000pt" height="305.000000pt" viewBox="0 0 768.000000 305.000000"
 preserveAspectRatio="xMidYMid meet">

<g transform="translate(0.000000,305.000000) scale(0.100000,-0.100000)"
fill="#000000" stroke="none">
<path d="M73 2033 c3 -852 4 -869 25 -943 24 -85 65 -190 90 -229 93 -149 229
-253 402 -309 158 -51 202 -57 450 -56 242 0 325 11 455 57 256 91 411 262
478 527 31 123 37 267 37 861 l0 589 273 -2 272 -3 3 -997 2 -998 240 0 240 0
0 1000 0 1000 945 0 945 0 0 185 0 185 -1699 0 -1700 0 -4 -797 c-3 -768 -4
-801 -24 -869 -59 -205 -170 -324 -338 -360 -77 -17 -173 -17 -251 0 -170 36
-276 144 -337 344 -20 65 -21 93 -24 875 l-4 807 -240 0 -240 0 4 -867z"/>
<path d="M5130 1240 l0 -710 145 0 145 0 0 264 0 263 203 6 c286 8 367 30 467
123 138 129 171 365 76 553 -34 66 -121 143 -193 170 -73 27 -269 40 -605 41
l-238 0 0 -710z m569 460 c120 -11 167 -34 200 -98 43 -84 35 -156 -25 -222
-52 -58 -101 -71 -291 -77 l-163 -6 0 207 0 206 88 0 c48 -1 134 -5 191 -10z"/>
<path d="M6308 1944 c-5 -4 -8 -324 -8 -711 l0 -703 145 0 145 0 0 295 0 295
83 0 c66 0 92 -5 134 -24 63 -30 94 -68 286 -353 l142 -212 168 -1 c92 0 167
3 167 8 -1 17 -271 429 -314 479 -26 29 -73 73 -103 96 l-56 41 64 17 c128 32
218 102 267 207 24 51 27 68 27 172 -1 106 -3 120 -30 175 -57 118 -153 186
-289 207 -79 11 -819 23 -828 12z m666 -244 c105 -9 130 -20 170 -73 16 -21
20 -43 20 -95 0 -81 -20 -120 -78 -153 -39 -23 -52 -24 -268 -27 l-228 -4 0
181 0 181 143 0 c78 -1 187 -5 241 -10z"/>
<path d="M3730 1235 l0 -705 220 0 220 0 2 518 3 517 378 3 377 2 0 185 0 185
-600 0 -600 0 0 -705z"/>
<path d="M3560 390 c-8 -16 -8 -20 3 -20 8 0 22 9 32 20 18 19 17 20 -3 20
-12 0 -26 -9 -32 -20z"/>
<path d="M7490 390 c-8 -16 -8 -20 3 -20 8 0 22 9 32 20 18 19 17 20 -3 20
-12 0 -26 -9 -32 -20z"/>
<path d="M1165 335 c-14 -13 -25 -28 -25 -33 0 -21 37 -52 75 -65 49 -17 58
-43 19 -53 -21 -5 -31 -2 -45 14 -22 28 -49 29 -49 2 0 -27 45 -54 87 -53 93
3 99 107 8 129 -36 8 -57 23 -49 35 9 15 53 10 63 -8 7 -14 14 -15 32 -7 l23
11 -26 26 c-35 35 -80 36 -113 2z"/>
<path d="M2723 350 c-49 -20 -72 -105 -44 -159 19 -34 72 -53 110 -40 30 11
51 35 51 58 0 19 -35 12 -48 -9 -15 -25 -44 -26 -65 -2 -20 22 -23 92 -5 110
17 17 67 15 74 -3 7 -17 30 -20 38 -6 10 15 -4 38 -30 50 -29 13 -50 13 -81 1z"/>
<path d="M3134 350 c-34 -13 -54 -50 -54 -97 0 -109 136 -148 185 -53 48 93
-36 189 -131 150z m84 -42 c18 -18 15 -88 -5 -110 -51 -57 -123 35 -77 100 17
24 62 30 82 10z"/>
<path d="M3533 350 c-52 -22 -73 -112 -39 -164 31 -48 121 -51 159 -5 27 33
23 119 -7 148 -26 25 -80 35 -113 21z m81 -46 c9 -9 16 -32 16 -54 0 -32 -5
-43 -26 -57 -24 -15 -29 -15 -53 -2 -29 16 -40 73 -21 109 13 24 61 27 84 4z"/>
<path d="M3748 345 c-17 -10 -32 -30 -39 -55 -30 -100 52 -171 150 -130 28 11
31 17 31 56 l0 44 -45 0 c-32 0 -45 -4 -45 -14 0 -8 10 -16 22 -18 30 -4 34
-24 8 -38 -43 -23 -90 13 -90 68 0 51 70 83 100 47 7 -8 19 -15 26 -15 18 0
18 34 -1 50 -23 19 -87 22 -117 5z"/>
<path d="M4055 348 c-89 -51 -54 -203 46 -200 29 1 79 35 79 54 0 20 -32 19
-51 -1 -38 -41 -84 -15 -84 47 0 65 44 94 86 56 26 -23 54 -11 39 16 -19 36
-77 50 -115 28z"/>
<path d="M6174 351 c-50 -21 -70 -103 -41 -161 26 -51 121 -56 160 -9 27 33
23 119 -7 148 -26 25 -80 35 -112 22z m86 -51 c19 -36 8 -93 -21 -109 -24 -13
-29 -13 -53 2 -21 14 -26 25 -26 57 0 22 7 45 16 54 23 23 71 20 84 -4z"/>
<path d="M62 269 c6 -94 23 -121 81 -121 69 0 77 12 77 112 0 73 -3 90 -15 90
-12 0 -15 -14 -15 -66 0 -73 -12 -104 -40 -104 -36 0 -50 27 -50 101 0 64 -2
69 -21 69 -21 0 -21 -4 -17 -81z"/>
<path d="M270 250 c0 -93 1 -100 20 -100 18 0 20 7 20 68 l0 67 41 -67 c27
-47 46 -68 60 -68 18 0 19 8 19 100 0 81 -3 100 -15 100 -11 0 -15 -16 -17
-67 l-3 -68 -40 68 c-30 52 -44 67 -62 67 -22 0 -23 -2 -23 -100z"/>
<path d="M480 250 c0 -93 1 -100 20 -100 19 0 20 7 20 100 0 93 -1 100 -20
100 -19 0 -20 -7 -20 -100z"/>
<path d="M545 332 c48 -153 78 -203 106 -175 8 8 69 171 69 186 0 4 -9 7 -19
7 -16 0 -25 -15 -42 -70 -13 -38 -25 -67 -28 -64 -3 3 -15 33 -26 67 -17 50
-25 63 -44 65 -19 3 -22 0 -16 -16z"/>
<path d="M750 250 l0 -101 77 3 c50 2 78 7 81 16 3 9 -13 12 -57 12 l-61 0 0
30 c0 29 1 30 50 30 43 0 50 3 50 20 0 17 -7 20 -50 20 -43 0 -50 3 -50 20 0
18 7 20 55 20 42 0 55 3 55 15 0 12 -15 15 -75 15 l-75 0 0 -100z"/>
<path d="M940 250 c0 -93 1 -100 20 -100 17 0 20 7 20 40 0 33 3 40 20 40 12
0 30 -16 46 -40 19 -28 34 -40 51 -40 27 0 26 4 -14 58 -21 28 -22 33 -8 38
27 11 38 53 20 80 -14 21 -23 24 -85 24 l-70 0 0 -100z m118 58 c18 -18 -5
-38 -44 -38 -30 0 -34 3 -34 25 0 22 4 25 33 25 18 0 38 -5 45 -12z"/>
<path d="M1340 250 c0 -93 1 -100 20 -100 19 0 20 7 20 100 0 93 -1 100 -20
100 -19 0 -20 -7 -20 -100z"/>
<path d="M1420 250 l0 -100 50 0 c27 0 60 5 74 11 49 23 59 126 15 170 -14 14
-33 19 -79 19 l-60 0 0 -100z m114 48 c34 -48 14 -103 -41 -114 l-33 -6 0 71
0 71 29 0 c20 0 35 -8 45 -22z"/>
<path d="M1673 333 c-3 -10 -19 -49 -34 -88 -16 -38 -29 -75 -29 -82 0 -23 36
-14 48 12 9 20 19 25 47 25 28 0 38 -5 47 -25 7 -16 19 -25 33 -25 22 0 22 2
-17 100 -36 88 -43 100 -64 100 -15 0 -27 -7 -31 -17z m51 -80 c6 -20 4 -23
-19 -23 -23 0 -25 3 -19 28 13 51 21 50 38 -5z"/>
<path d="M1830 250 l0 -100 59 0 c85 0 106 19 106 98 0 84 -18 102 -102 102
l-63 0 0 -100z m115 54 c11 -11 15 -30 13 -58 -2 -34 -8 -43 -31 -54 -47 -22
-57 -11 -57 63 l0 65 29 0 c16 0 37 -7 46 -16z"/>
<path d="M2040 250 l0 -100 75 0 c60 0 75 3 75 15 0 12 -13 15 -55 15 -54 0
-55 0 -55 30 0 29 1 30 50 30 43 0 50 3 50 20 0 17 -7 20 -50 20 -43 0 -50 3
-50 20 0 18 7 20 55 20 42 0 55 3 55 15 0 12 -15 15 -75 15 l-75 0 0 -100z"/>
<path d="M2292 338 c3 -7 19 -14 36 -16 l32 -3 0 -85 c0 -68 3 -84 15 -84 12
0 15 16 15 85 l0 85 30 0 c20 0 30 5 30 15 0 12 -16 15 -81 15 -60 0 -80 -3
-77 -12z"/>
<path d="M2480 250 l0 -100 80 0 c63 0 80 3 80 15 0 10 -15 15 -57 17 -55 3
-58 4 -61 31 -3 26 -2 27 47 27 44 0 51 3 51 20 0 17 -7 20 -50 20 -43 0 -50
3 -50 20 0 18 7 20 55 20 42 0 55 3 55 15 0 12 -15 15 -75 15 l-75 0 0 -100z"/>
<path d="M2880 250 c0 -93 1 -100 20 -100 18 0 20 7 20 67 l0 67 39 -65 c25
-41 46 -65 60 -67 20 -3 21 0 21 97 0 82 -3 101 -15 101 -11 0 -15 -16 -17
-67 l-3 -68 -40 67 c-30 51 -45 68 -62 68 -22 0 -23 -3 -23 -100z"/>
<path d="M3310 250 l0 -100 75 0 c59 0 75 3 75 14 0 11 -15 16 -52 18 l-53 3
-3 83 c-3 74 -5 82 -22 82 -19 0 -20 -7 -20 -100z"/>
<path d="M3930 250 c0 -93 1 -100 20 -100 19 0 20 7 20 100 0 93 -1 100 -20
100 -19 0 -20 -7 -20 -100z"/>
<path d="M4262 323 c-6 -16 -22 -58 -36 -95 -31 -79 -31 -78 -8 -78 11 0 24
11 30 25 10 21 19 25 52 25 34 0 41 -4 46 -25 4 -18 13 -25 30 -25 l23 0 -24
63 c-48 128 -54 137 -79 137 -17 0 -27 -8 -34 -27z m53 -65 c6 -25 5 -28 -19
-28 -30 0 -29 -2 -15 39 12 35 24 31 34 -11z"/>
<path d="M4490 250 c0 -92 1 -100 19 -100 16 0 20 8 23 43 3 42 3 42 46 45 28
2 42 8 42 18 0 10 -12 14 -45 14 -41 0 -45 2 -45 25 0 23 3 25 50 25 38 0 50
4 50 15 0 12 -14 15 -70 15 l-70 0 0 -100z"/>
<path d="M4670 250 l0 -100 75 0 c60 0 75 3 75 15 0 12 -13 15 -55 15 -54 0
-55 0 -55 30 0 29 1 30 50 30 43 0 50 3 50 20 0 17 -7 20 -50 20 -43 0 -50 3
-50 20 0 18 7 20 55 20 42 0 55 3 55 15 0 12 -15 15 -75 15 l-75 0 0 -100z"/>
<path d="M4860 250 l0 -100 49 0 c27 0 61 4 74 9 51 20 60 143 14 176 -13 9
-44 15 -79 15 l-58 0 0 -100z m114 48 c34 -48 14 -103 -41 -114 l-33 -6 0 71
0 71 29 0 c20 0 35 -8 45 -22z"/>
<path d="M5060 250 l0 -100 80 0 c64 0 80 3 80 15 0 12 -13 15 -55 15 -54 0
-55 0 -55 30 0 29 1 30 50 30 43 0 50 3 50 20 0 17 -7 20 -50 20 -43 0 -50 3
-50 20 0 18 7 20 55 20 42 0 55 3 55 15 0 12 -16 15 -80 15 l-80 0 0 -100z"/>
<path d="M5260 250 c0 -82 3 -100 15 -100 11 0 15 11 15 40 0 35 3 40 24 40
16 0 31 -12 50 -40 16 -24 34 -40 46 -40 26 0 25 10 -4 53 -24 35 -24 36 -5
53 21 19 25 64 7 82 -7 7 -40 12 -80 12 l-68 0 0 -100z m115 45 c0 -16 -8 -21
-42 -23 -40 -3 -43 -2 -43 23 0 25 3 26 43 23 34 -2 42 -7 42 -23z"/>
<path d="M5513 333 c-4 -10 -19 -49 -35 -88 -15 -38 -28 -76 -28 -82 0 -23 37
-14 48 12 9 20 19 25 47 25 28 0 38 -5 47 -25 7 -16 19 -25 33 -25 21 0 21 3
-18 100 -35 88 -43 100 -64 100 -13 0 -26 -8 -30 -17z m51 -80 c6 -20 4 -23
-18 -23 -29 0 -31 6 -15 47 11 30 19 24 33 -24z"/>
<path d="M5670 250 l0 -100 70 0 c54 0 70 3 70 14 0 11 -14 16 -47 18 l-48 3
-3 83 c-3 74 -5 82 -22 82 -19 0 -20 -7 -20 -100z"/>
<path d="M5920 250 l0 -100 60 0 c46 0 64 4 80 20 25 25 34 61 27 107 -10 58
-31 73 -104 73 l-63 0 0 -100z m115 54 c11 -11 15 -30 13 -58 -2 -34 -8 -43
-31 -54 -47 -22 -57 -11 -57 63 l0 65 29 0 c16 0 37 -7 46 -16z"/>
<path d="M6430 250 c0 -92 1 -100 19 -100 16 0 20 8 23 38 3 36 5 37 46 43 49
6 62 20 62 65 0 44 -16 54 -87 54 l-63 0 0 -100z m108 46 c5 -22 -13 -36 -45
-36 -19 0 -23 5 -23 31 0 28 2 30 32 27 23 -2 34 -9 36 -22z"/>
<path d="M6637 303 c-11 -26 -27 -69 -38 -95 -24 -58 -24 -58 1 -58 13 0 24
10 30 25 8 21 16 25 48 25 32 0 41 -5 50 -25 7 -15 20 -25 32 -25 25 0 26 -3
-18 105 -32 77 -41 90 -62 93 -22 2 -28 -4 -43 -45z m58 -45 c7 -25 5 -28 -20
-28 -22 0 -26 3 -20 18 4 9 10 25 12 35 7 23 19 11 28 -25z"/>
<path d="M6800 250 l0 -100 25 0 c23 0 25 4 25 40 0 53 25 53 62 0 26 -37 32
-40 73 -40 39 0 47 4 57 25 9 20 18 25 50 25 31 0 41 -5 50 -25 9 -21 48 -37
48 -20 0 3 -16 48 -37 101 -33 87 -38 95 -60 92 -20 -2 -30 -16 -52 -70 -16
-36 -31 -78 -35 -92 -9 -36 -19 -33 -50 14 -30 46 -31 50 -12 50 26 0 36 66
14 88 -7 7 -42 12 -85 12 l-73 0 0 -100z m125 45 c0 -16 -8 -21 -37 -23 -35
-3 -38 -1 -38 23 0 24 3 26 38 23 29 -2 37 -7 37 -23z m195 -61 c0 -2 -11 -4
-25 -4 -28 0 -30 6 -14 47 l11 28 14 -34 c8 -18 14 -35 14 -37z"/>
<path d="M7220 250 c0 -93 1 -100 20 -100 18 0 20 7 20 63 l0 62 40 -62 c27
-43 47 -63 60 -63 19 0 20 7 20 100 0 93 -1 100 -20 100 -18 0 -20 -7 -20 -62
l0 -63 -40 63 c-27 43 -46 62 -60 62 -19 0 -20 -6 -20 -100z"/>
<path d="M7446 258 c-20 -52 -36 -97 -36 -101 0 -17 36 -5 45 16 7 16 20 23
47 25 32 3 40 -1 50 -22 11 -26 48 -36 48 -13 0 6 -16 50 -34 97 -29 72 -38
85 -59 88 -22 3 -28 -5 -61 -90z m78 -5 c6 -20 4 -23 -18 -23 -29 0 -31 7 -14
45 12 27 19 23 32 -22z"/>
</g>
</svg>
